# xmcd CD database file
#
# Track frame offsets:
#	150
#	35160
#	81385
#	100675
#	121610
#	148165
#	166325
#	184990
#
# Disc length: 2937 seconds
#
# Revision: 0
# Processed by: cddbd v1.5.1PL2 Copyright (c) Steve Scherf et al.
# Submitted via: CDex 1.51
#
DISCID=6a0b7708
DTITLE=Aquabats (Frei Zinger) - Sequoia
DYEAR=1999
DGENRE=Jazz
TTITLE0=Hornskin
TTITLE1=Birdstorm
TTITLE2=Tabla Kan
TTITLE3=Suesong
TTITLE4=Conga
TTITLE5=Glass
TTITLE6=Wood
TTITLE7=Sequoia
EXTD=YEAR: 1999
EXTT0=
EXTT1=
EXTT2=
EXTT3=
EXTT4=
EXTT5=
EXTT6=
EXTT7=
PLAYORDER=
